<mxfile host="app.diagrams.net" modified="2021-10-10T14:12:10.939Z" agent="5.0 (Windows NT 10.0; Win64; x64) AppleWebKit/537.36 (KHTML, like Gecko) Chrome/94.0.4606.71 Safari/537.36" etag="Tr7Xb85jE1FGFMA5JX4v" version="15.5.0" type="github" pages="3">
  <diagram id="QZ5HccyDr5dGJmJIdLMl" name="Overview Use Case Diagram">
    <mxGraphModel dx="868" dy="482" grid="1" gridSize="10" guides="1" tooltips="1" connect="1" arrows="1" fold="1" page="1" pageScale="1" pageWidth="850" pageHeight="1100" math="0" shadow="0">
      <root>
        <mxCell id="0" />
        <mxCell id="1" parent="0" />
        <mxCell id="Dc_Acd1KISh38q1f9lKA-40" value="" style="rounded=0;whiteSpace=wrap;html=1;fillColor=none;" parent="1" vertex="1">
          <mxGeometry x="360" y="80" width="560" height="595" as="geometry" />
        </mxCell>
        <mxCell id="Dc_Acd1KISh38q1f9lKA-1" value="User" style="shape=umlActor;verticalLabelPosition=bottom;verticalAlign=top;html=1;" parent="1" vertex="1">
          <mxGeometry x="230" y="337.5" width="40" height="80" as="geometry" />
        </mxCell>
        <mxCell id="Dc_Acd1KISh38q1f9lKA-3" value="Non-citizen" style="shape=umlActor;verticalLabelPosition=bottom;verticalAlign=top;html=1;" parent="1" vertex="1">
          <mxGeometry x="300" y="477.5" width="40" height="80" as="geometry" />
        </mxCell>
        <mxCell id="Dc_Acd1KISh38q1f9lKA-4" value="Citizen" style="shape=umlActor;verticalLabelPosition=bottom;verticalAlign=top;html=1;" parent="1" vertex="1">
          <mxGeometry x="160" y="477.5" width="40" height="80" as="geometry" />
        </mxCell>
        <mxCell id="Dc_Acd1KISh38q1f9lKA-7" value="" style="endArrow=block;html=1;endFill=0;" parent="1" edge="1">
          <mxGeometry width="50" height="50" relative="1" as="geometry">
            <mxPoint x="190" y="467.5" as="sourcePoint" />
            <mxPoint x="220" y="427.5" as="targetPoint" />
          </mxGeometry>
        </mxCell>
        <mxCell id="Dc_Acd1KISh38q1f9lKA-10" value="" style="endArrow=block;html=1;endFill=0;" parent="1" edge="1">
          <mxGeometry width="50" height="50" relative="1" as="geometry">
            <mxPoint x="310" y="467.5" as="sourcePoint" />
            <mxPoint x="280" y="427.5" as="targetPoint" />
          </mxGeometry>
        </mxCell>
        <mxCell id="Dc_Acd1KISh38q1f9lKA-11" value="Login" style="ellipse;whiteSpace=wrap;html=1;" parent="1" vertex="1">
          <mxGeometry x="570" y="387.5" width="150" height="30" as="geometry" />
        </mxCell>
        <mxCell id="Dc_Acd1KISh38q1f9lKA-12" value="Register Account" style="ellipse;whiteSpace=wrap;html=1;" parent="1" vertex="1">
          <mxGeometry x="570" y="307.5" width="150" height="30" as="geometry" />
        </mxCell>
        <mxCell id="Dc_Acd1KISh38q1f9lKA-13" value="Manage account details" style="ellipse;whiteSpace=wrap;html=1;" parent="1" vertex="1">
          <mxGeometry x="575" y="557.5" width="150" height="30" as="geometry" />
        </mxCell>
        <mxCell id="Dc_Acd1KISh38q1f9lKA-14" value="Personnel of committe" style="shape=umlActor;verticalLabelPosition=bottom;verticalAlign=top;html=1;" parent="1" vertex="1">
          <mxGeometry x="1000" y="337.5" width="40" height="80" as="geometry" />
        </mxCell>
        <mxCell id="Dc_Acd1KISh38q1f9lKA-15" value="" style="endArrow=none;html=1;exitX=1;exitY=0.3333333333333333;exitDx=0;exitDy=0;exitPerimeter=0;entryX=0;entryY=0.5;entryDx=0;entryDy=0;" parent="1" source="Dc_Acd1KISh38q1f9lKA-1" target="Dc_Acd1KISh38q1f9lKA-12" edge="1">
          <mxGeometry width="50" height="50" relative="1" as="geometry">
            <mxPoint x="410" y="357.5" as="sourcePoint" />
            <mxPoint x="460" y="307.5" as="targetPoint" />
          </mxGeometry>
        </mxCell>
        <mxCell id="Dc_Acd1KISh38q1f9lKA-16" value="" style="endArrow=none;html=1;entryX=0;entryY=0.5;entryDx=0;entryDy=0;exitX=1;exitY=0.3333333333333333;exitDx=0;exitDy=0;exitPerimeter=0;" parent="1" source="Dc_Acd1KISh38q1f9lKA-1" target="Dc_Acd1KISh38q1f9lKA-11" edge="1">
          <mxGeometry width="50" height="50" relative="1" as="geometry">
            <mxPoint x="270" y="367.5" as="sourcePoint" />
            <mxPoint x="550" y="387.5" as="targetPoint" />
          </mxGeometry>
        </mxCell>
        <mxCell id="Dc_Acd1KISh38q1f9lKA-17" value="" style="endArrow=none;html=1;entryX=0;entryY=0.5;entryDx=0;entryDy=0;exitX=1;exitY=0.3333333333333333;exitDx=0;exitDy=0;exitPerimeter=0;" parent="1" source="Dc_Acd1KISh38q1f9lKA-1" target="Dc_Acd1KISh38q1f9lKA-13" edge="1">
          <mxGeometry width="50" height="50" relative="1" as="geometry">
            <mxPoint x="280" y="367.5" as="sourcePoint" />
            <mxPoint x="450" y="447.5" as="targetPoint" />
          </mxGeometry>
        </mxCell>
        <mxCell id="Dc_Acd1KISh38q1f9lKA-18" value="" style="endArrow=none;html=1;entryX=0;entryY=0.3333333333333333;entryDx=0;entryDy=0;entryPerimeter=0;exitX=1;exitY=0.5;exitDx=0;exitDy=0;" parent="1" source="Dc_Acd1KISh38q1f9lKA-12" target="Dc_Acd1KISh38q1f9lKA-14" edge="1">
          <mxGeometry width="50" height="50" relative="1" as="geometry">
            <mxPoint x="790" y="417.5" as="sourcePoint" />
            <mxPoint x="840" y="367.5" as="targetPoint" />
          </mxGeometry>
        </mxCell>
        <mxCell id="Dc_Acd1KISh38q1f9lKA-19" value="" style="endArrow=none;html=1;entryX=0;entryY=0.3333333333333333;entryDx=0;entryDy=0;entryPerimeter=0;exitX=1;exitY=0.5;exitDx=0;exitDy=0;" parent="1" source="Dc_Acd1KISh38q1f9lKA-11" target="Dc_Acd1KISh38q1f9lKA-14" edge="1">
          <mxGeometry width="50" height="50" relative="1" as="geometry">
            <mxPoint x="840" y="457.5" as="sourcePoint" />
            <mxPoint x="890" y="407.5" as="targetPoint" />
          </mxGeometry>
        </mxCell>
        <mxCell id="Dc_Acd1KISh38q1f9lKA-20" value="" style="endArrow=none;html=1;exitX=1;exitY=0.5;exitDx=0;exitDy=0;entryX=0;entryY=0.3333333333333333;entryDx=0;entryDy=0;entryPerimeter=0;" parent="1" source="Dc_Acd1KISh38q1f9lKA-13" target="Dc_Acd1KISh38q1f9lKA-14" edge="1">
          <mxGeometry width="50" height="50" relative="1" as="geometry">
            <mxPoint x="810" y="497.5" as="sourcePoint" />
            <mxPoint x="990" y="367.5" as="targetPoint" />
          </mxGeometry>
        </mxCell>
        <mxCell id="Dc_Acd1KISh38q1f9lKA-21" value="Register vaccination program" style="ellipse;whiteSpace=wrap;html=1;" parent="1" vertex="1">
          <mxGeometry x="410" y="207.5" width="150" height="30" as="geometry" />
        </mxCell>
        <mxCell id="Dc_Acd1KISh38q1f9lKA-22" value="Manage vaccination registration" style="ellipse;whiteSpace=wrap;html=1;" parent="1" vertex="1">
          <mxGeometry x="410" y="107.5" width="150" height="30" as="geometry" />
        </mxCell>
        <mxCell id="Dc_Acd1KISh38q1f9lKA-23" value="View vaccination appointment" style="ellipse;whiteSpace=wrap;html=1;" parent="1" vertex="1">
          <mxGeometry x="410" y="157.5" width="150" height="30" as="geometry" />
        </mxCell>
        <mxCell id="Dc_Acd1KISh38q1f9lKA-24" value="" style="endArrow=none;html=1;entryX=0;entryY=0.5;entryDx=0;entryDy=0;exitX=0.5;exitY=0;exitDx=0;exitDy=0;exitPerimeter=0;" parent="1" source="Dc_Acd1KISh38q1f9lKA-1" target="Dc_Acd1KISh38q1f9lKA-21" edge="1">
          <mxGeometry width="50" height="50" relative="1" as="geometry">
            <mxPoint x="280" y="357.5" as="sourcePoint" />
            <mxPoint x="310" y="247.5" as="targetPoint" />
          </mxGeometry>
        </mxCell>
        <mxCell id="Dc_Acd1KISh38q1f9lKA-25" value="" style="endArrow=none;html=1;entryX=0;entryY=0.5;entryDx=0;entryDy=0;" parent="1" target="Dc_Acd1KISh38q1f9lKA-23" edge="1">
          <mxGeometry width="50" height="50" relative="1" as="geometry">
            <mxPoint x="250" y="337.5" as="sourcePoint" />
            <mxPoint x="260" y="177.5" as="targetPoint" />
          </mxGeometry>
        </mxCell>
        <mxCell id="Dc_Acd1KISh38q1f9lKA-26" value="" style="endArrow=none;html=1;entryX=0;entryY=0.5;entryDx=0;entryDy=0;exitX=0.5;exitY=0;exitDx=0;exitDy=0;exitPerimeter=0;" parent="1" source="Dc_Acd1KISh38q1f9lKA-1" target="Dc_Acd1KISh38q1f9lKA-22" edge="1">
          <mxGeometry width="50" height="50" relative="1" as="geometry">
            <mxPoint x="240" y="237.5" as="sourcePoint" />
            <mxPoint x="290" y="187.5" as="targetPoint" />
          </mxGeometry>
        </mxCell>
        <mxCell id="Dc_Acd1KISh38q1f9lKA-27" value="Manage vaccination appointments" style="ellipse;whiteSpace=wrap;html=1;" parent="1" vertex="1">
          <mxGeometry x="725" y="147.5" width="150" height="30" as="geometry" />
        </mxCell>
        <mxCell id="Dc_Acd1KISh38q1f9lKA-28" value="Search vaccination supply" style="ellipse;whiteSpace=wrap;html=1;" parent="1" vertex="1">
          <mxGeometry x="725" y="197.5" width="150" height="30" as="geometry" />
        </mxCell>
        <mxCell id="Dc_Acd1KISh38q1f9lKA-29" value="View vaccination progress" style="ellipse;whiteSpace=wrap;html=1;" parent="1" vertex="1">
          <mxGeometry x="575" y="460" width="150" height="30" as="geometry" />
        </mxCell>
        <mxCell id="Dc_Acd1KISh38q1f9lKA-34" value="" style="endArrow=none;html=1;exitX=1;exitY=0.5;exitDx=0;exitDy=0;entryX=0;entryY=0.3333333333333333;entryDx=0;entryDy=0;entryPerimeter=0;" parent="1" source="Dc_Acd1KISh38q1f9lKA-29" target="Dc_Acd1KISh38q1f9lKA-14" edge="1">
          <mxGeometry width="50" height="50" relative="1" as="geometry">
            <mxPoint x="760" y="507.5" as="sourcePoint" />
            <mxPoint x="990" y="367.5" as="targetPoint" />
          </mxGeometry>
        </mxCell>
        <mxCell id="Dc_Acd1KISh38q1f9lKA-35" value="" style="endArrow=none;html=1;entryX=1;entryY=0.3333333333333333;entryDx=0;entryDy=0;entryPerimeter=0;exitX=0;exitY=0.5;exitDx=0;exitDy=0;" parent="1" source="Dc_Acd1KISh38q1f9lKA-29" target="Dc_Acd1KISh38q1f9lKA-1" edge="1">
          <mxGeometry width="50" height="50" relative="1" as="geometry">
            <mxPoint x="440" y="467.5" as="sourcePoint" />
            <mxPoint x="490" y="417.5" as="targetPoint" />
          </mxGeometry>
        </mxCell>
        <mxCell id="Dc_Acd1KISh38q1f9lKA-36" value="View vaccination certification" style="ellipse;whiteSpace=wrap;html=1;" parent="1" vertex="1">
          <mxGeometry x="410" y="267.5" width="150" height="30" as="geometry" />
        </mxCell>
        <mxCell id="Dc_Acd1KISh38q1f9lKA-37" value="" style="endArrow=none;html=1;entryX=0;entryY=0.5;entryDx=0;entryDy=0;exitX=0.5;exitY=0;exitDx=0;exitDy=0;exitPerimeter=0;" parent="1" source="Dc_Acd1KISh38q1f9lKA-1" target="Dc_Acd1KISh38q1f9lKA-36" edge="1">
          <mxGeometry width="50" height="50" relative="1" as="geometry">
            <mxPoint x="290" y="347.5" as="sourcePoint" />
            <mxPoint x="340" y="297.5" as="targetPoint" />
          </mxGeometry>
        </mxCell>
        <mxCell id="Dc_Acd1KISh38q1f9lKA-38" value="" style="endArrow=none;html=1;entryX=1;entryY=0.5;entryDx=0;entryDy=0;exitX=0.5;exitY=0;exitDx=0;exitDy=0;exitPerimeter=0;" parent="1" source="Dc_Acd1KISh38q1f9lKA-14" target="Dc_Acd1KISh38q1f9lKA-28" edge="1">
          <mxGeometry width="50" height="50" relative="1" as="geometry">
            <mxPoint x="990" y="337.5" as="sourcePoint" />
            <mxPoint x="1040" y="287.5" as="targetPoint" />
          </mxGeometry>
        </mxCell>
        <mxCell id="Dc_Acd1KISh38q1f9lKA-39" value="" style="endArrow=none;html=1;exitX=1;exitY=0.5;exitDx=0;exitDy=0;" parent="1" source="Dc_Acd1KISh38q1f9lKA-27" edge="1">
          <mxGeometry width="50" height="50" relative="1" as="geometry">
            <mxPoint x="1110" y="227.5" as="sourcePoint" />
            <mxPoint x="1020" y="337.5" as="targetPoint" />
          </mxGeometry>
        </mxCell>
        <mxCell id="Dc_Acd1KISh38q1f9lKA-41" value="Covid-19 Vaccination Registration System" style="text;html=1;align=center;verticalAlign=middle;resizable=0;points=[];autosize=1;strokeColor=none;fillColor=none;" parent="1" vertex="1">
          <mxGeometry x="350" y="50" width="240" height="20" as="geometry" />
        </mxCell>
        <mxCell id="_4xazL50Lz2TdWg94UvX-2" value="Generate report" style="ellipse;whiteSpace=wrap;html=1;" parent="1" vertex="1">
          <mxGeometry x="725" y="247.5" width="150" height="30" as="geometry" />
        </mxCell>
        <mxCell id="_4xazL50Lz2TdWg94UvX-4" value="" style="endArrow=none;html=1;exitX=1;exitY=0.5;exitDx=0;exitDy=0;" parent="1" source="_4xazL50Lz2TdWg94UvX-2" edge="1">
          <mxGeometry width="50" height="50" relative="1" as="geometry">
            <mxPoint x="730" y="332.5" as="sourcePoint" />
            <mxPoint x="1020" y="337.5" as="targetPoint" />
          </mxGeometry>
        </mxCell>
        <mxCell id="_4xazL50Lz2TdWg94UvX-5" value="&lt;font style=&quot;font-size: 15px&quot;&gt;Overview of the Use Case Diagram&lt;/font&gt;" style="rounded=0;whiteSpace=wrap;html=1;fillColor=#fff2cc;strokeColor=#d6b656;" parent="1" vertex="1">
          <mxGeometry x="360" width="560" height="30" as="geometry" />
        </mxCell>
      </root>
    </mxGraphModel>
  </diagram>
  <diagram id="HMHn6gz40RDtl7baZW45" name="Lydia">
    <mxGraphModel dx="868" dy="482" grid="1" gridSize="10" guides="1" tooltips="1" connect="1" arrows="1" fold="1" page="1" pageScale="1" pageWidth="850" pageHeight="1100" math="0" shadow="0">
      <root>
        <mxCell id="aVEHzQ1RNPErXkrV3qSP-0" />
        <mxCell id="aVEHzQ1RNPErXkrV3qSP-1" parent="aVEHzQ1RNPErXkrV3qSP-0" />
      </root>
    </mxGraphModel>
  </diagram>
  <diagram id="QC-5lZwebt4LVeN3G-U9" name="Yan Yee">
    <mxGraphModel dx="723" dy="402" grid="1" gridSize="10" guides="1" tooltips="1" connect="1" arrows="1" fold="1" page="1" pageScale="1" pageWidth="850" pageHeight="1100" math="0" shadow="0">
      <root>
        <mxCell id="hzztqeb9yM6Y-gHUAoGZ-0" />
        <mxCell id="hzztqeb9yM6Y-gHUAoGZ-1" parent="hzztqeb9yM6Y-gHUAoGZ-0" />
        <mxCell id="LB6ytogQlipnHUZBDTSi-0" value="&lt;font style=&quot;font-size: 15px&quot;&gt;Overview of the Use Case Diagram&lt;/font&gt;" style="rounded=0;whiteSpace=wrap;html=1;fillColor=#fff2cc;strokeColor=#d6b656;" vertex="1" parent="hzztqeb9yM6Y-gHUAoGZ-1">
          <mxGeometry x="360" y="10" width="560" height="30" as="geometry" />
        </mxCell>
        <mxCell id="MJu7JLxTSPtNbrEAbWEJ-2" value="" style="edgeStyle=none;rounded=0;orthogonalLoop=1;jettySize=auto;html=1;entryX=0;entryY=0.5;entryDx=0;entryDy=0;exitX=0.925;exitY=0.333;exitDx=0;exitDy=0;exitPerimeter=0;" edge="1" parent="hzztqeb9yM6Y-gHUAoGZ-1" source="k0Fo7fpXQ19L6i66q_eG-0" target="f9eajjpq9UxDJm9v3i0t-3">
          <mxGeometry relative="1" as="geometry">
            <mxPoint x="300" y="280" as="sourcePoint" />
          </mxGeometry>
        </mxCell>
        <mxCell id="k0Fo7fpXQ19L6i66q_eG-0" value="User" style="shape=umlActor;verticalLabelPosition=bottom;verticalAlign=top;html=1;" vertex="1" parent="hzztqeb9yM6Y-gHUAoGZ-1">
          <mxGeometry x="230" y="290" width="40" height="80" as="geometry" />
        </mxCell>
        <mxCell id="HLJ8Ym_5k8nP-oeP0YVb-0" value="" style="rounded=0;orthogonalLoop=1;jettySize=auto;html=1;dashed=1;" edge="1" parent="hzztqeb9yM6Y-gHUAoGZ-1" source="f9eajjpq9UxDJm9v3i0t-1" target="hgs5iVKRVq68uwUC3I7Y-0">
          <mxGeometry relative="1" as="geometry" />
        </mxCell>
        <mxCell id="HLJ8Ym_5k8nP-oeP0YVb-1" value="" style="rounded=0;orthogonalLoop=1;jettySize=auto;html=1;entryX=0;entryY=0.5;entryDx=0;entryDy=0;bendable=1;fixDash=0;dashed=1;exitX=1;exitY=0.5;exitDx=0;exitDy=0;" edge="1" parent="hzztqeb9yM6Y-gHUAoGZ-1" source="f9eajjpq9UxDJm9v3i0t-2" target="hgs5iVKRVq68uwUC3I7Y-0">
          <mxGeometry relative="1" as="geometry">
            <mxPoint x="680" y="210" as="targetPoint" />
          </mxGeometry>
        </mxCell>
        <mxCell id="f9eajjpq9UxDJm9v3i0t-1" value="Vaccination Registration" style="ellipse;whiteSpace=wrap;html=1;" vertex="1" parent="hzztqeb9yM6Y-gHUAoGZ-1">
          <mxGeometry x="420" y="130" width="150" height="40" as="geometry" />
        </mxCell>
        <mxCell id="f9eajjpq9UxDJm9v3i0t-2" value="View Vaccination Appointment" style="ellipse;whiteSpace=wrap;html=1;" vertex="1" parent="hzztqeb9yM6Y-gHUAoGZ-1">
          <mxGeometry x="420" y="220" width="150" height="40" as="geometry" />
        </mxCell>
        <mxCell id="f9eajjpq9UxDJm9v3i0t-3" value="View certificate of vaccination completion" style="ellipse;whiteSpace=wrap;html=1;" vertex="1" parent="hzztqeb9yM6Y-gHUAoGZ-1">
          <mxGeometry x="420" y="290" width="150" height="40" as="geometry" />
        </mxCell>
        <mxCell id="pGggUuNL5bWBn_rq1T6t-0" value="Manage account details" style="ellipse;whiteSpace=wrap;html=1;" vertex="1" parent="hzztqeb9yM6Y-gHUAoGZ-1">
          <mxGeometry x="420" y="430" width="150" height="40" as="geometry" />
        </mxCell>
        <mxCell id="pGggUuNL5bWBn_rq1T6t-1" value="View vaccination progress" style="ellipse;whiteSpace=wrap;html=1;" vertex="1" parent="hzztqeb9yM6Y-gHUAoGZ-1">
          <mxGeometry x="420" y="360" width="150" height="40" as="geometry" />
        </mxCell>
        <mxCell id="hgs5iVKRVq68uwUC3I7Y-0" value="Choose Person" style="ellipse;whiteSpace=wrap;html=1;" vertex="1" parent="hzztqeb9yM6Y-gHUAoGZ-1">
          <mxGeometry x="710" y="220" width="150" height="40" as="geometry" />
        </mxCell>
        <mxCell id="MJu7JLxTSPtNbrEAbWEJ-0" value="" style="rounded=0;orthogonalLoop=1;jettySize=auto;html=1;entryX=0;entryY=1;entryDx=0;entryDy=0;bendable=1;fixDash=0;dashed=1;exitX=1;exitY=0.5;exitDx=0;exitDy=0;" edge="1" parent="hzztqeb9yM6Y-gHUAoGZ-1" target="hgs5iVKRVq68uwUC3I7Y-0">
          <mxGeometry relative="1" as="geometry">
            <mxPoint x="570" y="310" as="sourcePoint" />
            <mxPoint x="680" y="280" as="targetPoint" />
          </mxGeometry>
        </mxCell>
        <mxCell id="MJu7JLxTSPtNbrEAbWEJ-1" value="" style="rounded=0;orthogonalLoop=1;jettySize=auto;html=1;bendable=1;fixDash=0;dashed=1;exitX=1;exitY=0.5;exitDx=0;exitDy=0;entryX=1;entryY=1;entryDx=0;entryDy=0;" edge="1" parent="hzztqeb9yM6Y-gHUAoGZ-1" target="hgs5iVKRVq68uwUC3I7Y-0">
          <mxGeometry relative="1" as="geometry">
            <mxPoint x="570" y="380" as="sourcePoint" />
            <mxPoint x="765" y="290" as="targetPoint" />
          </mxGeometry>
        </mxCell>
        <mxCell id="MJu7JLxTSPtNbrEAbWEJ-3" value="" style="edgeStyle=none;rounded=0;orthogonalLoop=1;jettySize=auto;html=1;entryX=0;entryY=0.5;entryDx=0;entryDy=0;exitX=1;exitY=0.3333333333333333;exitDx=0;exitDy=0;exitPerimeter=0;" edge="1" parent="hzztqeb9yM6Y-gHUAoGZ-1" source="k0Fo7fpXQ19L6i66q_eG-0" target="f9eajjpq9UxDJm9v3i0t-1">
          <mxGeometry relative="1" as="geometry">
            <mxPoint x="280" y="260" as="sourcePoint" />
            <mxPoint x="430" y="320" as="targetPoint" />
          </mxGeometry>
        </mxCell>
        <mxCell id="MJu7JLxTSPtNbrEAbWEJ-4" value="" style="edgeStyle=none;rounded=0;orthogonalLoop=1;jettySize=auto;html=1;entryX=0;entryY=0.5;entryDx=0;entryDy=0;exitX=1;exitY=0.3333333333333333;exitDx=0;exitDy=0;exitPerimeter=0;" edge="1" parent="hzztqeb9yM6Y-gHUAoGZ-1" source="k0Fo7fpXQ19L6i66q_eG-0" target="f9eajjpq9UxDJm9v3i0t-2">
          <mxGeometry relative="1" as="geometry">
            <mxPoint x="270" y="330" as="sourcePoint" />
            <mxPoint x="430" y="160" as="targetPoint" />
          </mxGeometry>
        </mxCell>
        <mxCell id="MJu7JLxTSPtNbrEAbWEJ-5" value="" style="edgeStyle=none;rounded=0;orthogonalLoop=1;jettySize=auto;html=1;entryX=0;entryY=0.5;entryDx=0;entryDy=0;exitX=1;exitY=0.3333333333333333;exitDx=0;exitDy=0;exitPerimeter=0;" edge="1" parent="hzztqeb9yM6Y-gHUAoGZ-1" source="k0Fo7fpXQ19L6i66q_eG-0" target="pGggUuNL5bWBn_rq1T6t-1">
          <mxGeometry relative="1" as="geometry">
            <mxPoint x="290" y="280" as="sourcePoint" />
            <mxPoint x="440" y="170" as="targetPoint" />
          </mxGeometry>
        </mxCell>
        <mxCell id="MJu7JLxTSPtNbrEAbWEJ-6" value="" style="edgeStyle=none;rounded=0;orthogonalLoop=1;jettySize=auto;html=1;entryX=0;entryY=0.5;entryDx=0;entryDy=0;exitX=1;exitY=0.3333333333333333;exitDx=0;exitDy=0;exitPerimeter=0;" edge="1" parent="hzztqeb9yM6Y-gHUAoGZ-1" source="k0Fo7fpXQ19L6i66q_eG-0" target="pGggUuNL5bWBn_rq1T6t-0">
          <mxGeometry relative="1" as="geometry">
            <mxPoint x="300" y="360" as="sourcePoint" />
            <mxPoint x="450" y="180" as="targetPoint" />
          </mxGeometry>
        </mxCell>
        <mxCell id="MJu7JLxTSPtNbrEAbWEJ-8" value="&amp;lt;&amp;lt;includes&amp;gt;&amp;gt;" style="text;html=1;align=center;verticalAlign=middle;resizable=0;points=[];autosize=1;strokeColor=none;fillColor=none;" vertex="1" parent="hzztqeb9yM6Y-gHUAoGZ-1">
          <mxGeometry x="600" y="170" width="90" height="20" as="geometry" />
        </mxCell>
        <mxCell id="MJu7JLxTSPtNbrEAbWEJ-9" value="&amp;lt;&amp;lt;includes&amp;gt;&amp;gt;" style="text;html=1;align=center;verticalAlign=middle;resizable=0;points=[];autosize=1;strokeColor=none;fillColor=none;" vertex="1" parent="hzztqeb9yM6Y-gHUAoGZ-1">
          <mxGeometry x="580" y="220" width="90" height="20" as="geometry" />
        </mxCell>
        <mxCell id="MJu7JLxTSPtNbrEAbWEJ-10" value="&amp;lt;&amp;lt;includes&amp;gt;&amp;gt;" style="text;html=1;align=center;verticalAlign=middle;resizable=0;points=[];autosize=1;strokeColor=none;fillColor=none;" vertex="1" parent="hzztqeb9yM6Y-gHUAoGZ-1">
          <mxGeometry x="560" y="270" width="90" height="20" as="geometry" />
        </mxCell>
        <mxCell id="MJu7JLxTSPtNbrEAbWEJ-11" value="&amp;lt;&amp;lt;includes&amp;gt;&amp;gt;" style="text;html=1;align=center;verticalAlign=middle;resizable=0;points=[];autosize=1;strokeColor=none;fillColor=none;" vertex="1" parent="hzztqeb9yM6Y-gHUAoGZ-1">
          <mxGeometry x="570" y="320" width="90" height="20" as="geometry" />
        </mxCell>
      </root>
    </mxGraphModel>
  </diagram>
</mxfile>
